<svg xmlns="http://www.w3.org/2000/svg" xmlns:xlink="http://www.w3.org/1999/xlink" width="500" zoomAndPan="magnify" viewBox="0 0 375 374.999991" height="500" preserveAspectRatio="xMidYMid meet" version="1.0"><defs><clipPath id="37eeb78fc7"><path d="M 21.136719 1 L 354 1 L 354 375 L 21.136719 375 Z M 21.136719 1 " clip-rule="nonzero"/></clipPath></defs><g clip-path="url(#37eeb78fc7)"><path fill="#539e43" d="M 187.636719 374.949219 C 182.476562 374.949219 177.664062 373.574219 173.203125 371.175781 L 127.492188 344.042969 C 120.617188 340.273438 124.054688 338.898438 126.117188 338.210938 C 135.394531 335.117188 137.113281 334.429688 146.738281 328.933594 C 147.769531 328.25 149.144531 328.597656 150.175781 329.285156 L 185.222656 350.222656 C 186.597656 350.910156 188.324219 350.910156 189.359375 350.222656 L 326.480469 270.910156 C 327.855469 270.222656 328.542969 268.847656 328.542969 267.125 L 328.542969 108.820312 C 328.542969 107.105469 327.855469 105.730469 326.480469 105.042969 L 189.359375 26.0625 C 187.988281 25.375 186.261719 25.375 185.222656 26.0625 L 48.105469 105.042969 C 46.726562 105.730469 46.039062 107.449219 46.039062 108.820312 L 46.039062 267.128906 C 46.039062 268.5 46.726562 270.222656 48.101562 270.910156 L 85.5625 292.539062 C 105.839844 302.839844 118.554688 290.828125 118.554688 278.800781 L 118.554688 122.554688 C 118.554688 120.496094 120.273438 118.4375 122.679688 118.4375 L 140.207031 118.4375 C 142.269531 118.4375 144.332031 120.152344 144.332031 122.558594 L 144.332031 278.804688 C 144.332031 305.9375 129.554688 321.734375 103.777344 321.734375 C 95.871094 321.734375 89.6875 321.734375 72.160156 313.140625 L 36.070312 292.539062 C 27.132812 287.394531 21.636719 277.78125 21.636719 267.476562 L 21.636719 109.171875 C 21.636719 98.863281 27.132812 89.25 36.070312 84.097656 L 173.203125 4.773438 C 181.789062 -0.03125 193.484375 -0.03125 202.070312 4.773438 L 339.203125 84.097656 C 348.136719 89.25 353.636719 98.863281 353.636719 109.167969 L 353.636719 267.472656 C 353.636719 277.773438 348.136719 287.390625 339.203125 292.53125 L 202.070312 371.859375 C 197.609375 373.921875 192.449219 374.945312 187.636719 374.945312 Z M 229.914062 266.101562 C 169.765625 266.101562 157.394531 238.617188 157.394531 215.269531 C 157.394531 213.207031 159.105469 211.148438 161.515625 211.148438 L 179.386719 211.148438 C 181.449219 211.148438 183.164062 212.523438 183.164062 214.582031 C 185.910156 232.789062 193.824219 241.714844 230.25 241.714844 C 259.121094 241.714844 271.492188 235.183594 271.492188 219.738281 C 271.492188 210.8125 268.054688 204.28125 223.042969 199.824219 C 185.574219 196.039062 162.203125 187.796875 162.203125 157.929688 C 162.203125 130.109375 185.574219 113.628906 224.753906 113.628906 C 268.742188 113.628906 290.402344 128.738281 293.152344 161.699219 C 293.152344 162.738281 292.800781 163.761719 292.113281 164.796875 C 291.425781 165.484375 290.402344 166.171875 289.363281 166.171875 L 271.492188 166.171875 C 269.78125 166.171875 268.054688 164.796875 267.71875 163.074219 C 263.59375 144.195312 252.933594 138.015625 224.753906 138.015625 C 193.136719 138.015625 189.359375 149.003906 189.359375 157.242188 C 189.359375 167.195312 193.824219 170.292969 236.4375 175.785156 C 278.714844 181.28125 298.648438 189.171875 298.648438 218.703125 C 298.300781 248.921875 273.554688 266.101562 229.914062 266.101562 Z M 229.914062 266.101562 " fill-opacity="1" fill-rule="nonzero"/></g></svg>