<svg xmlns="http://www.w3.org/2000/svg" xmlns:xlink="http://www.w3.org/1999/xlink" width="500" zoomAndPan="magnify" viewBox="0 0 375 374.999991" height="500" preserveAspectRatio="xMidYMid meet" version="1.0"><defs><clipPath id="1752f9a38f"><path d="M 5.453125 333 L 70 333 L 70 368 L 5.453125 368 Z M 5.453125 333 " clip-rule="nonzero"/></clipPath></defs><path fill="#6c4eb0" d="M -58.617188 357.160156 C -53.269531 350.398438 -43.191406 347.058594 -36.320312 346.886719 C -17.058594 346.519531 -9.03125 370.773438 -8.410156 380.417969 L 0.507812 383.117188 C -1.546875 353.558594 -19.730469 338.054688 -37.132812 338.054688 C -53.445312 338.046875 -68.511719 350.035156 -74.582031 367.613281 C -82.875 391.046875 -77.433594 413.578125 -67.269531 431.605469 C -68.15625 432.78125 -68.691406 434.84375 -68.511719 436.828125 C -68.339844 442.238281 -63.792969 446.742188 -58.34375 446.742188 L -57.988281 446.742188 C -52.28125 446.566406 -47.910156 441.792969 -48.179688 436.105469 C -48.179688 430.695312 -52.816406 426.203125 -58.257812 426.203125 L -58.617188 426.203125 C -58.976562 426.203125 -59.507812 426.203125 -59.957031 426.375 C -67.355469 413.757812 -70.480469 400.230469 -69.316406 385.644531 C -68.605469 374.644531 -65.035156 365.089844 -58.617188 357.160156 Z M -58.617188 357.160156 " fill-opacity="1" fill-rule="nonzero"/><g clip-path="url(#1752f9a38f)"><path fill="#f15a24" d="M 69.03125 364.921875 L 5.453125 367.125 L 38.046875 333.953125 L 69.035156 364.921875 Z M 69.03125 364.921875 " fill-opacity="1" fill-rule="nonzero"/></g><path fill="#f15a24" d="M 357.425781 200.410156 C 345.617188 292.589844 261.378906 357.726562 169.289062 345.882812 C 77.195312 334.0625 12.132812 249.746094 23.9375 157.566406 C 35.757812 65.386719 119.984375 0.25 212.089844 12.082031 C 304.183594 23.910156 369.261719 108.234375 357.425781 200.410156 " fill-opacity="1" fill-rule="nonzero"/><path fill="#999999" d="M 233.546875 131.152344 C 244.59375 142.90625 233.699219 170.699219 233.699219 170.699219 C 233.699219 170.699219 222.917969 209.988281 161.226562 260.941406 L 149.695312 249.632812 L 228.03125 169.511719 L 229.539062 167.460938 C 231.625 164.058594 233.339844 130.925781 233.546875 131.152344 " fill-opacity="1" fill-rule="nonzero"/><path stroke-linecap="round" transform="matrix(1.382554, 0, 0, 1.383846, 5.45455, 10.021765)" fill="none" stroke-linejoin="round" d="M 164.978961 87.531854 C 172.969155 96.025508 165.089151 116.109372 165.089151 116.109372 C 165.089151 116.109372 157.291084 144.500588 112.669748 181.320535 L 104.329206 173.148675 L 160.989515 115.251256 L 162.080114 113.769312 C 163.588871 111.310697 164.829216 87.368135 164.978961 87.531854 Z M 164.978961 87.531854 " stroke="#ffffff" stroke-width="1.918" stroke-opacity="1" stroke-miterlimit="4"/><path stroke-linecap="round" transform="matrix(1.382554, 0, 0, 1.383846, 5.45455, 10.021765)" fill-opacity="1" fill="#666666" fill-rule="nonzero" stroke-linejoin="round" d="M 92.098106 161.109647 L 164.860295 87.322971 C 168.558727 91.706701 169.341359 96.431984 168.270537 103.169887 C 167.550063 107.830247 159.489235 117.150967 159.489235 117.150967 L 104.329206 173.148675 " stroke="#ffffff" stroke-width="1.201" stroke-opacity="1" stroke-miterlimit="4"/><path fill="#ff931e" d="M 233.546875 131.222656 L 132.785156 232.972656 L 132.988281 232.78125 L 132.953125 232.792969 L 107.953125 208.132812 C 160.078125 143.222656 193.785156 131.121094 193.785156 131.121094 C 193.785156 131.121094 215.742188 122.546875 231.390625 129.203125 C 232.59375 129.847656 233.121094 130.21875 233.546875 131.226562 " fill-opacity="1" fill-rule="nonzero"/><path stroke-linecap="round" transform="matrix(1.382554, 0, 0, 1.383846, 5.45455, 10.021765)" fill="none" stroke-linejoin="round" d="M 164.978961 87.582664 L 92.098106 161.109647 L 92.245026 160.971333 L 92.219598 160.979801 L 74.137122 143.159782 C 111.839084 96.254151 136.219348 87.509272 136.219348 87.509272 C 136.219348 87.509272 152.100848 81.313336 163.419348 86.123302 C 164.289567 86.589056 164.670994 86.857217 164.978961 87.585486 Z M 164.978961 87.582664 " stroke="#ffffff" stroke-width="1.918" stroke-opacity="1" stroke-miterlimit="4"/><path stroke-linecap="round" transform="matrix(1.382554, 0, 0, 1.383846, 5.45455, 10.021765)" fill-opacity="1" fill="#999999" fill-rule="nonzero" stroke-linejoin="round" d="M 112.669748 181.320535 C 95.276666 195.640344 73.023919 218.140482 42.775327 233.829325 L 49.505399 262.590321 L 20.988769 234.501139 L 92.098106 161.109647 " stroke="#ffffff" stroke-width="1.918" stroke-opacity="1" stroke-miterlimit="4"/><path stroke-linecap="round" transform="matrix(1.382554, 0, 0, 1.383846, 5.45455, 10.021765)" fill-opacity="1" fill="#f15a24" fill-rule="nonzero" stroke-linejoin="round" d="M 74.623088 143.399716 L 92.287407 160.99956 L 51.477519 169.840412 L 74.233185 143.080745 L 74.625914 143.399716 Z M 74.623088 143.399716 " stroke="#ffffff" stroke-width="1.918" stroke-opacity="1" stroke-miterlimit="4"/><path fill="#999999" d="M 223.925781 101.695312 C 221.535156 123.339844 237.101562 142.824219 258.726562 145.238281 C 280.332031 147.640625 299.8125 132.046875 302.234375 110.410156 C 304.640625 88.773438 289.042969 69.269531 267.421875 66.863281 C 245.796875 64.472656 226.332031 80.046875 223.925781 101.695312 " fill-opacity="1" fill-rule="nonzero"/><path stroke-linecap="round" transform="matrix(1.382554, 0, 0, 1.383846, 5.45455, 10.021765)" fill="none" stroke-linejoin="round" d="M 158.020033 66.245499 C 156.290897 81.886355 167.550063 95.96623 183.191405 97.710689 C 198.81862 99.44668 212.908825 88.178264 214.660565 72.543053 C 216.401003 56.907843 205.119233 42.813853 189.480717 41.07504 C 173.839375 39.347517 159.760472 50.60182 158.020033 66.245499 Z M 158.020033 66.245499 " stroke="#ffffff" stroke-width="1.918" stroke-opacity="1" stroke-miterlimit="4"/><path fill="#666666" d="M 296.578125 127.839844 C 303.835938 117.214844 303.464844 101.316406 302 96.605469 C 300.214844 90.839844 296.207031 81.460938 289.222656 76.585938 L 252.296875 110.636719 C 252.296875 110.636719 280.679688 141.160156 281.414062 141.261719 C 281.714844 141.300781 289.941406 137.53125 296.578125 127.839844 " fill-opacity="1" fill-rule="nonzero"/><path stroke-linecap="round" transform="matrix(1.382554, 0, 0, 1.383846, 5.45455, 10.021765)" fill="none" stroke-linejoin="round" d="M 210.569404 85.138162 C 215.818973 77.460283 215.550561 65.971692 214.491041 62.567456 C 213.19984 58.401077 210.300993 51.623655 205.249201 48.100864 L 178.540818 72.706773 C 178.540818 72.706773 199.07008 94.763739 199.601252 94.83713 C 199.818807 94.865358 205.769072 92.141404 210.569404 85.138162 Z M 205.181392 65.861605 C 205.181392 65.861605 207.741192 72.17045 204.489172 77.076389 Z M 205.181392 65.861605 " stroke="#ffffff" stroke-width="1.918" stroke-opacity="1" stroke-miterlimit="4"/><path fill="#666666" d="M 150.566406 249.648438 L 109.8125 256.898438 L 134.417969 231.3125 " fill-opacity="1" fill-rule="nonzero"/><path stroke-linecap="round" transform="matrix(1.382554, 0, 0, 1.383846, 5.45455, 10.021765)" fill="none" stroke-linejoin="round" d="M 104.959267 173.159966 L 75.482006 178.398989 L 93.279118 159.909979 M 75.306832 143.529562 L 112.79124 178.79982 " stroke="#ffffff" stroke-width="1.918" stroke-opacity="1" stroke-miterlimit="4"/></svg>