<svg xmlns="http://www.w3.org/2000/svg" xmlns:xlink="http://www.w3.org/1999/xlink" width="500" zoomAndPan="magnify" viewBox="0 0 375 374.999991" height="500" preserveAspectRatio="xMidYMid meet" version="1.0"><path fill="#6c4eb0" d="M 134.703125 64.152344 C 148.082031 47.246094 173.273438 38.898438 190.445312 38.46875 C 238.601562 37.542969 258.675781 98.183594 260.222656 122.292969 L 282.515625 129.046875 C 277.382812 55.148438 231.917969 16.382812 188.421875 16.382812 C 147.632812 16.367188 109.96875 46.339844 94.792969 90.28125 C 74.0625 148.867188 87.664062 205.195312 113.082031 250.269531 C 110.863281 253.199219 109.523438 258.363281 109.96875 263.320312 C 110.402344 276.84375 121.769531 288.109375 135.386719 288.109375 L 136.28125 288.109375 C 150.550781 287.664062 161.472656 275.730469 160.804688 261.519531 C 160.804688 247.992188 149.210938 236.757812 135.609375 236.757812 L 134.703125 236.757812 C 133.808594 236.757812 132.484375 236.757812 131.355469 237.1875 C 112.855469 205.640625 105.042969 171.832031 107.960938 135.355469 C 109.730469 107.855469 118.660156 83.972656 134.703125 64.152344 Z M 134.703125 64.152344 " fill-opacity="1" fill-rule="nonzero"/><path fill="#6c4eb0" d="M 27.261719 319.910156 C 42.203125 342.441406 72.753906 356.84375 106.191406 356.84375 C 115.105469 356.84375 124.480469 356.191406 133.617188 353.929688 C 191.59375 342.664062 235.519531 307.515625 260.714844 255.699219 L 260.921875 255.238281 C 273.855469 254.105469 283.882812 242.605469 283.230469 228.855469 C 282.542969 215.105469 271.398438 204.078125 257.8125 204.078125 L 256.90625 204.078125 C 242.871094 204.539062 231.933594 216.472656 232.382812 230.683594 C 232.828125 237.886719 235.742188 243.75 239.730469 248.019531 C 224.136719 278.675781 200.730469 301.191406 165.269531 320.132812 C 141.414062 332.738281 116.21875 337.484375 91.695312 334.105469 C 71.191406 331.191406 55.148438 321.917969 45.328125 307.070312 C 30.625 284.523438 29.285156 260.207031 41.53125 235.878906 C 50.476562 218.304688 63.839844 205.460938 72.769531 199.136719 C 70.535156 193.289062 67.855469 183.378906 66.519531 175.953125 C 0.492188 223.707031 7.203125 289.03125 27.261719 319.910156 Z M 27.261719 319.910156 " fill-opacity="1" fill-rule="nonzero"/><path fill="#6c4eb0" d="M 362.574219 309.96875 C 375.9375 282.929688 374.835938 237.425781 340.714844 198.4375 L 340.507812 198.882812 C 305.96875 157.871094 255.117188 135.34375 197.128906 135.34375 L 189.539062 135.34375 C 185.773438 127.007812 177.082031 121.816406 167.261719 121.816406 L 166.59375 121.816406 C 152.558594 121.816406 141.621094 134.003906 142.082031 148.183594 C 142.53125 161.695312 153.898438 172.976562 167.5 172.976562 L 168.601562 172.976562 C 178.644531 172.53125 187.335938 166.207031 190.894531 157.203125 L 199.152344 157.203125 C 233.511719 157.203125 266.042969 167.335938 295.714844 187.15625 C 318.4375 202.261719 334.730469 222.082031 343.867188 245.742188 C 351.875 265.117188 351.445312 284.046875 343.199219 299.835938 C 330.492188 324.613281 309.078125 337.695312 280.773438 337.695312 C 262.929688 337.695312 245.550781 332.054688 236.621094 328.007812 C 231.28125 332.484375 222.351562 339.925781 215.878906 344.449219 C 235.492188 353.4375 255.34375 358.632812 274.507812 358.632812 C 317.992188 358.632812 350.296875 333.867188 362.574219 309.96875 Z M 362.574219 309.96875 " fill-opacity="1" fill-rule="nonzero"/><path fill="#6c4eb0" d="M -58.617188 357.160156 C -53.269531 350.398438 -43.191406 347.058594 -36.320312 346.886719 C -17.058594 346.519531 -9.03125 370.773438 -8.410156 380.417969 L 0.507812 383.117188 C -1.546875 353.558594 -19.730469 338.054688 -37.132812 338.054688 C -53.445312 338.046875 -68.511719 350.035156 -74.582031 367.613281 C -82.875 391.046875 -77.433594 413.578125 -67.269531 431.605469 C -68.15625 432.78125 -68.691406 434.84375 -68.511719 436.828125 C -68.339844 442.238281 -63.792969 446.742188 -58.34375 446.742188 L -57.988281 446.742188 C -52.28125 446.566406 -47.910156 441.792969 -48.179688 436.105469 C -48.179688 430.695312 -52.816406 426.203125 -58.257812 426.203125 L -58.617188 426.203125 C -58.976562 426.203125 -59.507812 426.203125 -59.957031 426.375 C -67.355469 413.757812 -70.480469 400.230469 -69.316406 385.644531 C -68.605469 374.644531 -65.035156 365.089844 -58.617188 357.160156 Z M -58.617188 357.160156 " fill-opacity="1" fill-rule="nonzero"/></svg>