<svg xmlns="http://www.w3.org/2000/svg" xmlns:xlink="http://www.w3.org/1999/xlink" width="500" zoomAndPan="magnify" viewBox="0 0 375 374.999991" height="500" preserveAspectRatio="xMidYMid meet" version="1.0"><defs><clipPath id="0961b4886b"><path d="M 0 2.730469 L 369.75 2.730469 L 369.75 372.480469 L 0 372.480469 Z M 0 2.730469 " clip-rule="nonzero"/></clipPath></defs><path fill="#6c4eb0" d="M -58.617188 357.160156 C -53.269531 350.398438 -43.191406 347.058594 -36.320312 346.886719 C -17.058594 346.519531 -9.03125 370.773438 -8.410156 380.417969 L 0.507812 383.117188 C -1.546875 353.558594 -19.730469 338.054688 -37.132812 338.054688 C -53.445312 338.046875 -68.511719 350.035156 -74.582031 367.613281 C -82.875 391.046875 -77.433594 413.578125 -67.269531 431.605469 C -68.15625 432.78125 -68.691406 434.84375 -68.511719 436.828125 C -68.339844 442.238281 -63.792969 446.742188 -58.34375 446.742188 L -57.988281 446.742188 C -52.28125 446.566406 -47.910156 441.792969 -48.179688 436.105469 C -48.179688 430.695312 -52.816406 426.203125 -58.257812 426.203125 L -58.617188 426.203125 C -58.976562 426.203125 -59.507812 426.203125 -59.957031 426.375 C -67.355469 413.757812 -70.480469 400.230469 -69.316406 385.644531 C -68.605469 374.644531 -65.035156 365.089844 -58.617188 357.160156 Z M -58.617188 357.160156 " fill-opacity="1" fill-rule="nonzero"/><g clip-path="url(#0961b4886b)"><path fill="#007acc" d="M 277.3125 2.730469 L 277.3125 320.484375 L 0 279.117188 L 277.3125 372.480469 L 369.75 334.003906 L 369.75 41.148438 Z M 180.253906 56.804688 L 95.324219 140.808594 L 44.195312 102.273438 L 23.109375 109.324219 L 75.105469 160.742188 L 23.109375 212.160156 L 44.195312 219.207031 L 95.324219 180.671875 L 180.253906 264.617188 L 231.09375 243.066406 L 231.09375 78.414062 Z M 180.253906 116.71875 L 180.253906 204.9375 L 121.902344 160.742188 Z M 180.253906 116.71875 " fill-opacity="1" fill-rule="nonzero"/></g></svg>