<svg xmlns="http://www.w3.org/2000/svg" xmlns:xlink="http://www.w3.org/1999/xlink" width="381" zoomAndPan="magnify" viewBox="0 0 285.75 285.749983" height="381" preserveAspectRatio="xMidYMid meet" version="1.0"><defs><clipPath id="8561d31acb"><path d="M 0 0 L 285.328125 0 L 285.328125 285.328125 L 0 285.328125 Z M 0 0 " clip-rule="nonzero"/></clipPath><clipPath id="17066ffbec"><path d="M 37.46875 0 L 247.863281 0 C 257.800781 0 267.328125 3.949219 274.355469 10.972656 C 281.382812 18 285.328125 27.53125 285.328125 37.46875 L 285.328125 247.863281 C 285.328125 257.800781 281.382812 267.328125 274.355469 274.355469 C 267.328125 281.382812 257.800781 285.328125 247.863281 285.328125 L 37.46875 285.328125 C 27.53125 285.328125 18 281.382812 10.972656 274.355469 C 3.949219 267.328125 0 257.800781 0 247.863281 L 0 37.46875 C 0 27.53125 3.949219 18 10.972656 10.972656 C 18 3.949219 27.53125 0 37.46875 0 Z M 37.46875 0 " clip-rule="nonzero"/></clipPath><clipPath id="5354a487f9"><path d="M 25.03125 134 L 132 134 L 132 238 L 25.03125 238 Z M 25.03125 134 " clip-rule="nonzero"/></clipPath><clipPath id="78c24a8741"><path d="M 117 131 L 260.324219 131 L 260.324219 269.691406 L 117 269.691406 Z M 117 131 " clip-rule="nonzero"/></clipPath></defs><g clip-path="url(#8561d31acb)"><g clip-path="url(#17066ffbec)"><path fill="#0aab7c" d="M 0 0 L 285.328125 0 L 285.328125 285.328125 L 0 285.328125 Z M 0 0 " fill-opacity="1" fill-rule="nonzero"/></g></g><path fill="#ffffff" d="M 89.042969 83.445312 C 88.113281 82.988281 87.21875 82.519531 86.351562 82.039062 C 88.882812 70.078125 91.988281 55.246094 94.621094 42.273438 C 94.914062 40.84375 95.222656 39.472656 95.558594 38.171875 C 97.726562 29.648438 100.730469 23.898438 103.996094 20.507812 C 108.011719 16.335938 112.414062 15.753906 116.105469 18.019531 C 117.652344 18.972656 119.074219 20.417969 120.285156 22.3125 C 121.144531 23.65625 122.207031 24.882812 123.386719 26 C 125.535156 28.039062 127.96875 29.621094 130.5625 30.738281 C 137.011719 33.53125 144.429688 33.484375 150.847656 30.59375 C 153.308594 29.480469 155.625 27.949219 157.683594 26 C 158.863281 24.882812 159.917969 23.65625 160.785156 22.3125 C 162.144531 20.199219 163.761719 18.636719 165.515625 17.707031 C 168.828125 15.960938 172.644531 16.453125 176.222656 19.691406 C 179.667969 22.804688 182.894531 28.457031 185.234375 37.113281 C 185.675781 38.726562 186.078125 40.449219 186.449219 42.273438 C 189.167969 55.691406 192.394531 71.101562 194.976562 83.261719 C 194.855469 83.324219 194.734375 83.382812 194.609375 83.445312 C 180.632812 90.34375 161.890625 94.144531 141.828125 94.144531 C 121.773438 94.144531 103.027344 90.34375 89.042969 83.445312 Z M 89.042969 83.445312 " fill-opacity="1" fill-rule="nonzero"/><path fill="#ffffff" d="M 234.078125 116.710938 C 234.078125 131.363281 192.199219 143.234375 140.535156 143.234375 C 88.875 143.234375 46.992188 131.363281 46.992188 116.710938 C 46.992188 108.332031 60.707031 100.851562 82.121094 95.992188 C 82.316406 96.09375 82.507812 96.1875 82.707031 96.285156 C 98.621094 104.144531 119.613281 108.46875 141.828125 108.46875 C 163.929688 108.46875 184.832031 104.191406 200.710938 96.402344 C 221.109375 101.265625 234.078125 108.558594 234.078125 116.710938 Z M 234.078125 116.710938 " fill-opacity="1" fill-rule="nonzero"/><g clip-path="url(#5354a487f9)"><path fill="#ffffff" d="M 131.101562 222.972656 C 130.066406 224.507812 129.058594 226.058594 128.085938 227.628906 C 125.925781 231.082031 124.007812 234.421875 122.3125 237.609375 L 52.410156 202.261719 L 76.363281 192.285156 L 25.03125 163.28125 L 51.847656 134.179688 C 57.050781 137.34375 63.945312 140.15625 72.378906 142.554688 C 72.457031 142.574219 72.53125 142.59375 72.601562 142.613281 C 78.8125 175.738281 107.816406 204.574219 131.101562 222.972656 Z M 131.101562 222.972656 " fill-opacity="1" fill-rule="nonzero"/></g><g clip-path="url(#78c24a8741)"><path fill="#ffffff" d="M 208.695312 195.5625 L 235.785156 201.125 C 235.785156 201.125 161.925781 210.535156 117.433594 269.570312 C 117.433594 269.570312 131.523438 204.378906 205.367188 168.882812 C 207.582031 167.820312 208.980469 165.5625 208.980469 163.105469 L 208.980469 142.46875 C 218.183594 139.835938 225.53125 136.707031 230.824219 133.15625 C 231.808594 132.5 232.707031 131.832031 233.527344 131.164062 L 260.308594 163.289062 Z M 208.695312 195.5625 " fill-opacity="1" fill-rule="nonzero"/></g><path fill="#ffffff" d="M 134.128906 155.15625 C 133.289062 162.785156 121.535156 167.75 107.882812 166.234375 C 94.222656 164.730469 83.835938 157.320312 84.683594 149.6875 C 84.832031 148.328125 85.332031 147.042969 86.144531 145.875 C 100.128906 148.605469 116.304688 150.230469 133.320312 150.59375 C 134.007812 152.070312 134.300781 153.613281 134.128906 155.15625 Z M 134.128906 155.15625 " fill-opacity="1" fill-rule="nonzero"/><path fill="#ffffff" d="M 177.46875 166.234375 C 163.808594 167.753906 152.050781 162.785156 151.210938 155.15625 C 151.039062 153.566406 151.347656 151.980469 152.085938 150.460938 C 169.023438 149.886719 184.992188 148.046875 198.636719 145.105469 C 199.769531 146.484375 200.484375 148.019531 200.664062 149.6875 C 201.503906 157.320312 191.117188 164.730469 177.46875 166.234375 Z M 177.46875 166.234375 " fill-opacity="1" fill-rule="nonzero"/></svg>